<svg width="300" height="138" viewBox="0 0 300 138" fill="none" xmlns="http://www.w3.org/2000/svg">
<path d="M65.0227 39.9716L-6.86646e-05 5.52222L56.8849 24.2486L65.0227 39.9716Z" fill="#1A4220"/>
<path opacity="0.3" d="M65.0227 39.9716L-6.86646e-05 5.52222L56.8849 24.2486L65.0227 39.9716Z" fill="black"/>
<path d="M80.3936 9.4763L68.3614 17.7748L65.0227 39.9716L56.8849 24.2486L36.2756 34.6138L-3.05176e-05 5.52222L80.3936 9.4763Z" fill="#1A4220"/>
<path opacity="0.8" d="M80.3936 9.4763L68.3614 17.7748L65.0227 39.9716L56.8849 24.2486L36.2756 34.6138L-3.05176e-05 5.52222L80.3936 9.4763Z" fill="white"/>
<path opacity="0.2" d="M68.3615 17.7748L4.19617e-05 5.52222L56.885 24.2486L65.0228 39.9716L68.3615 17.7748Z" fill="black"/>
<path d="M294.331 137C310.289 100.569 283.568 78.6537 241.076 64.0436C198.584 49.4334 178.237 35.9473 188.79 15.1566C199.345 -5.63461 243.263 -1.70093 254.359 15.1566C265.455 32.0142 249.206 65.7298 185.521 63.4819C125.015 61.3466 106.218 39.4302 68 37.7284" stroke="#1A4220" stroke-miterlimit="10" stroke-dasharray="7.93 7.93"/>
</svg>
