<svg width="63" height="56" viewBox="0 0 63 56" fill="none" xmlns="http://www.w3.org/2000/svg">
<path d="M56.4366 2.92962L46.6448 0L44.8949 5.71124L49.0829 6.96436C44.7327 8.43604 40.6249 10.5303 36.8911 13.1803C36.5225 13.1633 36.1538 13.156 35.7851 13.156H16.1229L0.777771 55.9976H10.0116L22.6827 20.8846H28.7043C24.7632 25.8401 22.6053 31.1959 22.6053 36.0665C22.6053 39.2824 23.6191 42.0458 25.5374 44.0583C26.9728 45.5638 29.6173 47.3579 34.0696 47.3579C43.6082 47.3579 51.0074 36.4838 51.0074 27.1284C51.0251 25.1813 50.6669 23.2488 49.9518 21.4341C47.6427 22.3342 45.3373 23.7232 43.0331 25.5162C43.1294 26.0483 43.1767 26.5879 43.1744 27.1284C43.1744 32.466 38.6718 39.6293 34.0671 39.6293C32.7387 39.6293 31.7863 39.337 31.2407 38.7619C30.5759 38.0644 30.4358 36.9108 30.4358 36.0665C30.4358 31.5926 33.8287 25.817 39.1019 21.2886C42.0316 18.5761 46.3413 16.4592 46.3413 16.4592C48.5133 15.3572 50.7811 14.4498 53.1174 13.748L51.7152 18.3068L57.5008 20.0366L60.4686 10.3719L62.2222 4.6607L56.4366 2.92962Z" fill="#B4CC74"/>
</svg>
