<svg width="114" height="32" viewBox="0 0 114 32" fill="none" xmlns="http://www.w3.org/2000/svg">
<path d="M50.1615 8.52017C48.8099 7.64903 47.0365 7.21265 44.8922 7.21265C42.7813 7.21483 40.698 7.69304 38.7975 8.6117C36.8286 9.56227 35.0758 10.9068 33.6475 12.5621C32.1432 14.3005 30.9948 16.3173 30.2675 18.4982C29.5075 20.7308 29.3049 22.728 29.6644 24.4327C29.8214 25.2526 30.1409 26.0327 30.604 26.7271C31.0672 27.4216 31.6646 28.0163 32.3612 28.4762C33.7668 29.4209 35.6447 29.8998 37.9443 29.8998C40.5521 29.9043 43.1059 29.1564 45.2992 27.7457C47.476 26.3979 49.2569 24.4974 50.4606 22.2377L50.7107 21.7637H45.4365L45.3417 21.9272C44.6801 23.0475 43.7339 23.9728 42.5991 24.6092C41.4605 25.2409 40.178 25.5674 38.876 25.5572C37.2105 25.5572 36.0975 25.0669 35.4568 24.0666C34.8161 23.0664 34.7474 21.6444 35.2443 19.8842L35.2557 19.8499H51.5197L51.608 19.6701C51.8908 19.097 52.1391 18.5076 52.3516 17.9049C53.0593 15.7802 53.2195 13.8925 52.8256 12.2973C52.4694 10.7366 51.5121 9.37941 50.1615 8.52017ZM47.6903 15.875H36.8526C37.5011 14.6377 38.4582 13.5889 39.631 12.8301C40.9713 11.9573 42.3719 11.5226 43.7955 11.5226C45.2975 11.5226 46.4106 11.9312 47.0921 12.7337C47.7393 13.4757 47.9371 14.5348 47.6903 15.8734V15.875Z" fill="#292D32"/>
<path d="M69.4802 21.7638L69.387 21.9272C68.7155 23.0485 67.7613 23.974 66.62 24.6109C65.4789 25.2422 64.1943 25.5686 62.8903 25.5588C61.2248 25.5588 60.1118 25.0685 59.4842 24.0699C58.8565 23.0713 58.7944 21.6493 59.3044 19.8875L59.3174 19.8515H75.5814L75.6713 19.6734C75.9577 19.1004 76.2099 18.511 76.4264 17.9082C77.1521 15.7835 77.3253 13.8974 76.9445 12.3006C76.5986 10.7434 75.6494 9.38683 74.3049 8.52835C72.9598 7.65721 71.1898 7.22083 69.0454 7.22083C66.9314 7.22372 64.8452 7.70186 62.9409 8.61988C60.9634 9.57017 59.2004 10.9138 57.7599 12.5686C56.2436 14.3054 55.0806 16.3212 54.3358 18.5031C53.5578 20.7373 53.3388 22.733 53.682 24.4376C53.8304 25.258 54.143 26.0399 54.6011 26.7364C55.0592 27.433 55.6533 28.0297 56.3477 28.491C57.7451 29.4356 59.6165 29.9145 61.9194 29.9145C64.5366 29.9163 67.0988 29.1633 69.2988 27.7457C71.4861 26.3982 73.2808 24.4993 74.5027 22.2394L74.756 21.7638H69.4802ZM63.7516 12.8285C65.0967 11.9557 66.5023 11.5209 67.9275 11.5209C69.4279 11.5209 70.5344 11.9279 71.2126 12.732C71.8468 13.4822 72.0298 14.5413 71.7781 15.8815H60.942C61.602 14.6403 62.5693 13.5891 63.7516 12.8285Z" fill="#292D32"/>
<path d="M111.821 9.06278C110.496 7.80266 108.399 7.16524 105.586 7.16524C103.919 7.15974 102.264 7.45084 100.699 8.02493C99.2014 8.56554 97.8235 9.3927 96.6423 10.4602C95.5323 11.4545 94.6822 12.7052 94.1662 14.1033C93.6301 15.589 93.6072 16.8033 94.0992 17.7104C94.5911 18.6175 95.4165 19.2664 96.5786 19.6717C97.6834 20.0574 99.1658 20.3663 100.98 20.5919C101.936 20.6991 102.885 20.8579 103.824 21.0675C104.35 21.2031 104.724 21.4221 104.939 21.7212C105.133 21.9926 105.117 22.4437 104.89 23.0631C104.603 23.8476 103.969 24.4883 103.005 24.9672C101.915 25.4825 100.721 25.7376 99.5156 25.7125C98.0675 25.7125 97.0068 25.3856 96.3628 24.7318C95.7189 24.0781 95.5734 23.3033 95.8627 22.2916L95.9804 21.8798H90.9333L90.8598 22.1004C90.0426 24.5161 90.345 26.4463 91.7456 27.8388C93.112 29.2003 95.3086 29.89 98.2718 29.89C99.9849 29.894 101.686 29.6106 103.306 29.0515C104.853 28.5297 106.284 27.7108 107.518 26.6408C108.671 25.6472 109.556 24.3792 110.09 22.9536C110.674 21.36 110.729 20.064 110.254 19.1029C109.778 18.1419 108.936 17.4407 107.742 17.006C106.597 16.5925 105.11 16.2819 103.312 16.0842C102.005 15.9207 101.063 15.772 100.501 15.6478C100.075 15.5781 99.6808 15.3776 99.3734 15.0741C99.1691 14.8486 99.1609 14.4694 99.3505 13.948C99.6333 13.1635 100.245 12.5294 101.165 12.0668C102.208 11.566 103.354 11.3179 104.51 11.3428C105.744 11.3428 106.663 11.6304 107.241 12.1976C107.82 12.7647 107.969 13.4381 107.751 14.3076L107.653 14.7096H112.746L112.815 14.4808C113.511 12.1763 113.178 10.354 111.821 9.06278Z" fill="#292D32"/>
<path d="M95.6698 7.45776H92.8832C89.5719 7.45776 87.5419 10.1562 87.0827 10.8393L86.6757 10.8492L87.8884 7.45776H82.6257L74.7217 29.6464H79.9518L84.8795 15.87C85.6509 14.131 87.0761 12.3544 89.4902 12.3544H93.903L95.6698 7.45776Z" fill="#292D32"/>
<path d="M31.9951 11.449L33.6687 5.92635L34.6575 2.65754L31.3887 1.6769L25.8726 0L24.8838 3.26881L27.2455 3.98468C24.7914 4.82523 22.4741 6.02187 20.3679 7.53624C20.1636 7.52643 19.9544 7.52316 19.742 7.52316H8.65254L0 31.9984H5.20885L12.3561 11.9312H15.7508C13.528 14.7619 12.3103 17.815 12.3103 20.6049C12.3103 22.4436 12.8824 24.0225 13.9643 25.1731C14.7816 26.0328 16.2656 27.0576 18.7777 27.0576C24.1581 27.0576 28.3324 20.8468 28.3324 15.4991C28.3426 14.3863 28.1401 13.2818 27.7358 12.245C26.3285 12.8288 25.0137 13.6144 23.8329 14.5773C23.888 14.8814 23.9153 15.1899 23.9146 15.4991C23.9146 18.5505 21.3747 22.6414 18.7777 22.6414C18.0275 22.6414 17.4914 22.478 17.1825 22.1511C16.8066 21.7523 16.7281 21.0936 16.7281 20.6098C16.7281 18.0536 18.642 14.7538 21.6166 12.1665C23.269 10.6171 25.7026 9.406 25.7026 9.406C26.928 8.77663 28.2074 8.25863 29.5255 7.85822L28.7328 10.4602L31.9951 11.449Z" fill="#292D32"/>
</svg>
