<svg width="199" height="57" viewBox="0 0 199 57" fill="none" xmlns="http://www.w3.org/2000/svg">
<path d="M87.8064 15.327C85.4409 13.8024 82.3374 13.0387 78.5847 13.0387C74.8904 13.0425 71.2445 13.8795 67.9184 15.4872C64.4727 17.1508 61.4051 19.5038 58.9054 22.4007C56.2727 25.443 54.263 28.9727 52.9902 32.7895C51.6602 36.6967 51.3055 40.1921 51.9347 43.1754C52.2094 44.6102 52.7685 45.9755 53.5791 47.1908C54.3896 48.4062 55.4353 49.447 56.6543 50.2519C59.1142 51.9052 62.4008 52.7433 66.4253 52.7433C70.9892 52.7512 75.4584 51.4422 79.2969 48.9733C83.1066 46.6146 86.2233 43.2887 88.3299 39.334L88.7675 38.5045H79.5372L79.3713 38.7905C78.2134 40.7511 76.5575 42.3705 74.5716 43.4843C72.5789 44.5898 70.3344 45.1612 68.0557 45.1433C65.141 45.1433 63.1931 44.2852 62.0718 42.5347C60.9506 40.7842 60.8304 38.2956 61.7 35.215L61.72 35.155H90.1834L90.3379 34.8403C90.8329 33.8375 91.2675 32.8059 91.6393 31.7512C92.8778 28.0327 93.1582 24.729 92.4688 21.9373C91.8455 19.206 90.1702 16.8307 87.8064 15.327ZM83.4816 28.1986H64.5146C65.6497 26.0333 67.3246 24.1978 69.3772 22.8698C71.7227 21.3423 74.174 20.5815 76.6654 20.5815C79.294 20.5815 81.2419 21.2966 82.4347 22.701C83.5674 23.9996 83.9135 25.8531 83.4816 28.1957V28.1986Z" fill="white"/>
<path d="M121.616 38.5045L121.453 38.7906C120.278 40.753 118.608 42.3726 116.61 43.4873C114.613 44.592 112.365 45.1634 110.083 45.1463C107.168 45.1463 105.22 44.2882 104.122 42.5405C103.024 40.7928 102.915 38.3043 103.807 35.2208L103.83 35.1579H132.294L132.451 34.8461C132.952 33.8435 133.393 32.8119 133.772 31.7569C135.042 28.0385 135.346 24.7376 134.679 21.9431C134.074 19.2178 132.413 16.8438 130.06 15.3414C127.706 13.8168 124.608 13.0531 120.855 13.0531C117.155 13.0582 113.504 13.8949 110.172 15.5016C106.711 17.1647 103.625 19.5161 101.104 22.4122C98.4507 25.4518 96.4153 28.9796 95.1118 32.7981C93.7503 36.7082 93.367 40.2007 93.9677 43.1841C94.2274 44.6197 94.7744 45.9882 95.5761 47.2072C96.3778 48.4261 97.4176 49.4706 98.6329 50.2777C101.079 51.931 104.354 52.7691 108.384 52.7691C112.964 52.7722 117.448 51.4544 121.298 48.9734C125.126 46.6152 128.267 43.2919 130.406 39.3369L130.849 38.5045H121.616ZM111.59 22.867C113.944 21.3395 116.404 20.5787 118.899 20.5787C121.524 20.5787 123.461 21.2909 124.648 22.6982C125.758 24.0111 126.078 25.8646 125.638 28.2101H106.673C107.828 26.0378 109.521 24.1981 111.59 22.867Z" fill="white"/>
<path d="M195.716 16.2767C193.396 14.0714 189.727 12.9558 184.804 12.9558C181.886 12.9462 178.99 13.4557 176.251 14.4604C173.631 15.4065 171.219 16.8541 169.152 18.7223C167.209 20.4625 165.722 22.6513 164.819 25.098C163.88 27.6981 163.84 29.8233 164.701 31.4108C165.562 32.9983 167.007 34.1339 169.04 34.8432C170.974 35.5183 173.568 36.0589 176.743 36.4536C178.416 36.6413 180.078 36.9192 181.72 37.286C182.641 37.5234 183.296 37.9067 183.671 38.4301C184.012 38.9049 183.983 39.6944 183.585 40.7785C183.085 42.1514 181.975 43.2727 180.287 44.1108C178.38 45.0126 176.29 45.4591 174.181 45.4151C171.646 45.4151 169.79 44.843 168.663 43.6989C167.536 42.5548 167.281 41.199 167.788 39.4284L167.994 38.7076H159.161L159.032 39.0937C157.602 43.3213 158.131 46.6994 160.582 49.1364C162.974 51.5191 166.818 52.7262 172.004 52.7262C175.002 52.7331 177.98 52.2371 180.814 51.2588C183.522 50.3455 186.026 48.9124 188.185 47.0398C190.204 45.3009 191.752 43.0817 192.687 40.5868C193.708 37.798 193.805 35.5297 192.973 33.8478C192.141 32.166 190.668 30.9389 188.577 30.178C186.574 29.4543 183.971 28.9109 180.825 28.5648C178.537 28.2787 176.889 28.0184 175.905 27.8011C175.159 27.679 174.47 27.3282 173.932 26.7971C173.574 26.4023 173.56 25.7387 173.892 24.8263C174.386 23.4533 175.456 22.3435 177.067 21.534C178.892 20.6575 180.898 20.2234 182.922 20.2669C185.081 20.2669 186.689 20.7703 187.701 21.7628C188.714 22.7554 188.974 23.9339 188.594 25.4556L188.422 26.1592H197.335L197.455 25.7588C198.674 21.7257 198.09 18.5364 195.716 16.2767Z" fill="white"/>
<path d="M167.45 13.4677H162.573C156.778 13.4677 153.226 18.1901 152.422 19.3858L151.71 19.4029L153.832 13.4677H144.622L130.789 52.2998H139.942L148.566 28.1899C149.916 25.1465 152.41 22.0373 156.635 22.0373H164.358L167.45 13.4677Z" fill="white"/>
<path d="M56.0136 20.4528L58.9426 10.7877L60.6731 5.06695L54.9524 3.35074L45.2987 0.416016L43.5682 6.13672L47.7014 7.38956C43.4065 8.8606 39.351 10.9548 35.665 13.6051C35.3075 13.5879 34.9414 13.5822 34.5695 13.5822H15.162L0.0193176 56.416H9.13526L21.6436 21.2966H27.5845C23.6945 26.2507 21.5635 31.5939 21.5635 36.4765C21.5635 39.6944 22.5646 42.4575 24.4582 44.4712C25.8884 45.9757 28.4856 47.7692 32.8819 47.7692C42.2982 47.7692 49.6035 36.8998 49.6035 27.5407C49.6214 25.5933 49.2671 23.6603 48.5595 21.8458C46.0966 22.8675 43.7956 24.2425 41.729 25.9275C41.8254 26.4598 41.8733 26.9998 41.872 27.5407C41.872 32.881 37.427 40.0405 32.8819 40.0405C31.569 40.0405 30.6308 39.7545 30.0902 39.1824C29.4323 38.4845 29.295 37.3317 29.295 36.4851C29.295 32.0115 32.6445 26.2364 37.8504 21.7085C40.7422 18.9969 45.0012 16.8773 45.0012 16.8773C47.1457 15.7759 49.3849 14.8693 51.6916 14.1686L50.3043 18.7223L56.0136 20.4528Z" fill="white"/>
</svg>
