<svg width="171" height="49" viewBox="0 0 171 49" fill="none" xmlns="http://www.w3.org/2000/svg">
<path d="M75.8657 13.7275C73.8382 12.4207 71.178 11.7661 67.9614 11.7661C64.7948 11.7694 61.6698 12.4867 58.8189 13.8648C55.8654 15.2907 53.236 17.3076 51.0934 19.7906C48.8368 22.3984 47.1142 25.4238 46.0233 28.6953C44.8832 32.0444 44.5792 35.0404 45.1186 37.5976C45.354 38.8274 45.8332 39.9976 46.528 41.0393C47.2228 42.0811 48.119 42.9732 49.1639 43.6631C51.2724 45.0802 54.0895 45.7986 57.539 45.7986C61.4509 45.8054 65.2817 44.6834 68.5718 42.5672C71.8373 40.5455 74.5088 37.6946 76.3144 34.3049L76.6895 33.5939H68.7778L68.6356 33.8391C67.6432 35.5196 66.2238 36.9076 64.5216 37.8623C62.8136 38.8099 60.8897 39.2997 58.9365 39.2843C56.4382 39.2843 54.7686 38.5488 53.8075 37.0484C52.8464 35.5479 52.7435 33.4149 53.4888 30.7744L53.5059 30.7229H77.9031L78.0355 30.4532C78.4598 29.5936 78.8323 28.7094 79.1511 27.8053C80.2127 24.6181 80.4529 21.7863 79.8621 19.3934C79.3278 17.0524 77.8918 15.0164 75.8657 13.7275ZM72.1587 24.7603H55.9013C56.8742 22.9043 58.3099 21.331 60.0692 20.1927C62.0797 18.8835 64.1808 18.2313 66.3162 18.2313C68.5694 18.2313 70.239 18.8443 71.2614 20.0481C72.2323 21.1611 72.5289 22.7499 72.1587 24.7578V24.7603Z" fill="#1A4220"/>
<path d="M104.845 33.5938L104.705 33.839C103.698 35.5211 102.267 36.9093 100.555 37.8647C98.8429 38.8117 96.916 39.3015 94.9598 39.2867C92.4615 39.2867 90.7919 38.5512 89.8504 37.0532C88.9089 35.5552 88.8158 33.4222 89.5807 30.7792L89.6003 30.7253H113.998L114.132 30.4581C114.562 29.5987 114.94 28.7145 115.265 27.8102C116.354 24.6229 116.614 21.7936 116.042 19.3983C115.523 17.0624 114.099 15.0275 112.083 13.7397C110.065 12.4329 107.41 11.7783 104.193 11.7783C101.022 11.7827 97.8923 12.4999 95.0358 13.877C92.0694 15.3025 89.4248 17.318 87.2638 19.8004C84.9894 22.4058 83.2447 25.4296 82.1275 28.7026C80.9604 32.0541 80.6319 35.0477 81.1468 37.6049C81.3693 38.8354 81.8383 40.0084 82.5254 41.0532C83.2126 42.0981 84.1038 42.9933 85.1455 43.6852C87.2418 45.1023 90.049 45.8206 93.5035 45.8206C97.4294 45.8233 101.273 44.6937 104.573 42.5672C107.854 40.5458 110.546 37.6973 112.379 34.3073L112.759 33.5938H104.845ZM96.2519 20.1902C98.2696 18.881 100.378 18.2288 102.516 18.2288C104.767 18.2288 106.427 18.8393 107.444 20.0456C108.395 21.1709 108.67 22.7596 108.292 24.77H92.0373C93.0273 22.9081 94.4784 21.3312 96.2519 20.1902Z" fill="#1A4220"/>
<path d="M168.36 14.5414C166.371 12.6511 163.226 11.6949 159.006 11.6949C156.506 11.6867 154.023 12.1234 151.676 12.9845C149.429 13.7955 147.362 15.0363 145.591 16.6376C143.925 18.1292 142.65 20.0053 141.876 22.1025C141.072 24.3312 141.038 26.1528 141.776 27.5135C142.514 28.8742 143.752 29.8476 145.495 30.4556C147.152 31.0342 149.376 31.4976 152.097 31.8359C153.531 31.9968 154.955 32.235 156.363 32.5494C157.153 32.7529 157.714 33.0814 158.036 33.5301C158.327 33.937 158.303 34.6137 157.962 35.5429C157.533 36.7198 156.582 37.6808 155.135 38.3992C153.5 39.1722 151.709 39.5549 149.901 39.5172C147.728 39.5172 146.137 39.0268 145.171 38.0462C144.205 37.0655 143.987 35.9033 144.421 34.3857L144.598 33.7679H137.027L136.916 34.0989C135.69 37.7225 136.144 40.618 138.245 42.7069C140.295 44.7492 143.59 45.7838 148.035 45.7838C150.605 45.7898 153.157 45.3646 155.586 44.5261C157.908 43.7432 160.054 42.5148 161.904 40.9098C163.635 39.4193 164.962 37.5171 165.763 35.3787C166.639 32.9882 166.722 31.044 166.009 29.6024C165.295 28.1608 164.032 27.109 162.24 26.4568C160.524 25.8365 158.293 25.3707 155.596 25.074C153.635 24.8289 152.222 24.6058 151.379 24.4194C150.74 24.3148 150.148 24.0141 149.687 23.5589C149.381 23.2205 149.369 22.6517 149.653 21.8696C150.077 20.6928 150.994 19.7415 152.374 19.0477C153.939 18.2964 155.658 17.9243 157.393 17.9616C159.244 17.9616 160.622 18.3931 161.49 19.2438C162.358 20.0946 162.581 21.1047 162.255 22.409L162.108 23.0121H169.747L169.85 22.6689C170.895 19.2119 170.395 16.4783 168.36 14.5414Z" fill="#1A4220"/>
<path d="M144.132 12.1338H139.952C134.984 12.1338 131.939 16.1816 131.25 17.2064L130.64 17.2211L132.459 12.1338H124.565L112.708 45.4185H120.554L127.946 24.7528C129.103 22.1442 131.241 19.4792 134.862 19.4792H141.482L144.132 12.1338Z" fill="#1A4220"/>
<path d="M48.6147 18.1209L51.1253 9.83651L52.6086 4.93305L47.7051 3.46201L39.4305 0.946533L37.9472 5.85L41.49 6.92385C37.8086 8.18475 34.3325 9.97979 31.1731 12.2515C30.8666 12.2368 30.5528 12.2319 30.2341 12.2319H13.5991L0.619629 48.9465H8.4333L19.1547 18.8442H24.247C20.9126 23.0906 19.0861 27.6704 19.0861 31.8555C19.0861 34.6137 19.9442 36.9821 21.5672 38.7081C22.7931 39.9977 25.0193 41.535 28.7876 41.535C36.8587 41.535 43.1204 32.2184 43.1204 24.1963C43.1357 22.527 42.832 20.8702 42.2255 19.3149C40.1144 20.1907 38.1421 21.3692 36.3708 22.8135C36.4534 23.2698 36.4944 23.7326 36.4934 24.1963C36.4934 28.7737 32.6834 34.9104 28.7876 34.9104C27.6622 34.9104 26.8581 34.6652 26.3947 34.1749C25.8308 33.5766 25.7131 32.5886 25.7131 31.8629C25.7131 28.0284 28.5841 23.0783 33.0462 19.1972C35.5249 16.873 39.1756 15.0562 39.1756 15.0562C41.0137 14.1122 42.933 13.3351 44.9102 12.7345L43.7211 16.6376L48.6147 18.1209Z" fill="#1A4220"/>
</svg>
