<?xml version="1.0" standalone="no"?>
<!DOCTYPE svg PUBLIC "-//W3C//DTD SVG 20010904//EN"
 "http://www.w3.org/TR/2001/REC-SVG-20010904/DTD/svg10.dtd">
<svg version="1.0" xmlns="http://www.w3.org/2000/svg"
 width="1278.000000pt" height="1280.000000pt" viewBox="0 0 1278.000000 1280.000000"
 preserveAspectRatio="xMidYMid meet">
<g transform="translate(0.000000,1280.000000) scale(0.100000,-0.100000)"
fill="#000000" stroke="none">
<path d="M5879 12796 c-3 -3 -63 -10 -134 -16 -577 -48 -1042 -226 -1455 -557
-586 -470 -1018 -1258 -1285 -2348 -126 -514 -200 -980 -300 -1895 -57 -516
-82 -648 -154 -810 -237 -539 -856 -831 -1841 -868 l-175 -7 75 -43 c106 -60
308 -158 420 -202 594 -235 1027 -211 1433 79 48 35 90 61 93 59 8 -9 -89 -91
-183 -155 -323 -221 -724 -310 -1176 -261 -59 6 -109 9 -112 7 -2 -3 9 -54 25
-115 100 -381 278 -639 528 -767 168 -87 317 -117 595 -122 104 -2 191 -6 194
-9 3 -3 -2 -37 -10 -75 -34 -147 -110 -248 -223 -291 -53 -21 -81 -24 -262
-28 -111 -2 -202 -7 -202 -11 0 -15 177 -216 252 -286 181 -168 333 -266 651
-420 136 -66 206 -105 204 -114 -1 -10 -220 -81 -682 -221 -374 -114 -705
-219 -735 -235 -288 -147 -552 -390 -746 -685 -175 -267 -300 -563 -470 -1110
-115 -371 -185 -583 -195 -594 -5 -6 -9 -15 -9 -21 0 -14 279 -291 375 -372
106 -90 191 -147 306 -205 l104 -53 5590 0 5590 0 86 36 c113 47 254 141 418
279 186 157 291 240 302 240 14 0 11 38 -5 63 -8 12 -80 180 -161 372 -191
457 -268 631 -375 850 -331 674 -647 1051 -1045 1245 -88 43 -206 78 -989 294
-489 135 -894 250 -899 255 -7 7 15 39 63 93 472 542 731 1235 826 2208 21
225 30 825 15 1105 -48 911 -229 2027 -440 2725 -197 650 -472 1202 -827 1660
-109 140 -434 470 -564 572 -546 427 -1151 660 -1885 728 -66 6 -164 15 -218
20 -98 10 -380 14 -388 6z"/>
</g>
</svg>
