<svg width="32" height="33" viewBox="0 0 32 33" fill="none" xmlns="http://www.w3.org/2000/svg">
<path d="M21.3333 17.1367H10.6667C10.12 17.1367 9.66667 16.6834 9.66667 16.1367C9.66667 15.5901 10.12 15.1367 10.6667 15.1367H21.3333C21.88 15.1367 22.3333 15.5901 22.3333 16.1367C22.3333 16.6834 21.88 17.1367 21.3333 17.1367Z" fill="#292D32"/>
<path d="M16 22.47C15.4533 22.47 15 22.0167 15 21.47V10.8033C15 10.2567 15.4533 9.80334 16 9.80334C16.5467 9.80334 17 10.2567 17 10.8033V21.47C17 22.0167 16.5467 22.47 16 22.47Z" fill="#292D32"/>
<path d="M20 30.47H12C4.76001 30.47 1.66667 27.3767 1.66667 20.1367V12.1367C1.66667 4.89668 4.76001 1.80334 12 1.80334H20C27.24 1.80334 30.3333 4.89668 30.3333 12.1367V20.1367C30.3333 27.3767 27.24 30.47 20 30.47ZM12 3.80334C5.85334 3.80334 3.66667 5.99001 3.66667 12.1367V20.1367C3.66667 26.2833 5.85334 28.47 12 28.47H20C26.1467 28.47 28.3333 26.2833 28.3333 20.1367V12.1367C28.3333 5.99001 26.1467 3.80334 20 3.80334H12Z" fill="#DFE2E6"/>
</svg>
