<svg width="24" height="25" viewBox="0 0 24 25" fill="none" xmlns="http://www.w3.org/2000/svg">
<path d="M15.5314 6.50955H9.46864C9.08011 6.50937 8.69535 6.58574 8.33635 6.7343C7.97734 6.88286 7.65112 7.1007 7.37633 7.37536C7.10153 7.65003 6.88355 7.97615 6.73482 8.33509C6.5861 8.69402 6.50955 9.07875 6.50955 9.46728V15.53C6.50937 15.9186 6.58579 16.3035 6.73443 16.6626C6.88308 17.0217 7.10103 17.348 7.37585 17.6228C7.65066 17.8976 7.97694 18.1156 8.33603 18.2642C8.69513 18.4129 9.08 18.4893 9.46864 18.4891H15.5314C15.92 18.4893 16.3049 18.4129 16.664 18.2642C17.0231 18.1156 17.3493 17.8976 17.6242 17.6228C17.899 17.348 18.1169 17.0217 18.2656 16.6626C18.4142 16.3035 18.4906 15.9186 18.4905 15.53V9.46728C18.4905 9.07875 18.4139 8.69402 18.2652 8.33509C18.1165 7.97615 17.8985 7.65003 17.6237 7.37536C17.3489 7.1007 17.0227 6.88286 16.6637 6.7343C16.3047 6.58574 15.9199 6.50937 15.5314 6.50955ZM12.5 16.3795C11.7327 16.3795 10.9826 16.152 10.3446 15.7257C9.70666 15.2994 9.2094 14.6935 8.91577 13.9846C8.62214 13.2757 8.54531 12.4957 8.695 11.7431C8.8447 10.9906 9.21419 10.2993 9.75675 9.75675C10.2993 9.21419 10.9906 8.8447 11.7431 8.695C12.4957 8.54531 13.2757 8.62214 13.9846 8.91577C14.6935 9.2094 15.2994 9.70665 15.7257 10.3446C16.152 10.9826 16.3795 11.7327 16.3795 12.5C16.3781 13.5285 15.9689 14.5144 15.2417 15.2417C14.5144 15.9689 13.5285 16.3781 12.5 16.3795ZM16.4014 9.57773C16.2126 9.57773 16.028 9.52175 15.8711 9.41686C15.7141 9.31197 15.5917 9.16289 15.5195 8.98847C15.4472 8.81405 15.4283 8.62213 15.4652 8.43696C15.502 8.2518 15.5929 8.08171 15.7264 7.94822C15.8599 7.81472 16.03 7.72381 16.2151 7.68698C16.4003 7.65015 16.5922 7.66905 16.7667 7.7413C16.9411 7.81355 17.0902 7.93589 17.195 8.09287C17.2999 8.24984 17.3559 8.43439 17.3559 8.62318C17.3559 8.87635 17.2553 9.11914 17.0763 9.29815C16.8973 9.47716 16.6545 9.57773 16.4014 9.57773ZM12.5 10.1286C12.031 10.1286 11.5725 10.2677 11.1825 10.5283C10.7926 10.7889 10.4886 11.1592 10.3092 11.5925C10.1297 12.0258 10.0827 12.5026 10.1742 12.9626C10.2657 13.4226 10.4916 13.8452 10.8232 14.1768C11.1548 14.5085 11.5774 14.7343 12.0374 14.8258C12.4974 14.9173 12.9742 14.8703 13.4075 14.6909C13.8408 14.5114 14.2112 14.2074 14.4717 13.8175C14.7323 13.4275 14.8714 12.969 14.8714 12.5C14.8714 11.8711 14.6215 11.2679 14.1768 10.8232C13.7321 10.3785 13.1289 10.1286 12.5 10.1286ZM15.5314 6.50955H9.46864C9.08011 6.50937 8.69535 6.58574 8.33635 6.7343C7.97734 6.88286 7.65112 7.1007 7.37633 7.37536C7.10153 7.65003 6.88355 7.97615 6.73482 8.33509C6.5861 8.69402 6.50955 9.07875 6.50955 9.46728V15.53C6.50937 15.9186 6.58579 16.3035 6.73443 16.6626C6.88308 17.0217 7.10103 17.348 7.37585 17.6228C7.65066 17.8976 7.97694 18.1156 8.33603 18.2642C8.69513 18.4129 9.08 18.4893 9.46864 18.4891H15.5314C15.92 18.4893 16.3049 18.4129 16.664 18.2642C17.0231 18.1156 17.3493 17.8976 17.6242 17.6228C17.899 17.348 18.1169 17.0217 18.2656 16.6626C18.4142 16.3035 18.4906 15.9186 18.4905 15.53V9.46728C18.4905 9.07875 18.4139 8.69402 18.2652 8.33509C18.1165 7.97615 17.8985 7.65003 17.6237 7.37536C17.3489 7.1007 17.0227 6.88286 16.6637 6.7343C16.3047 6.58574 15.9199 6.50937 15.5314 6.50955ZM12.5 16.3795C11.7327 16.3795 10.9826 16.152 10.3446 15.7257C9.70666 15.2994 9.2094 14.6935 8.91577 13.9846C8.62214 13.2757 8.54531 12.4957 8.695 11.7431C8.8447 10.9906 9.21419 10.2993 9.75675 9.75675C10.2993 9.21419 10.9906 8.8447 11.7431 8.695C12.4957 8.54531 13.2757 8.62214 13.9846 8.91577C14.6935 9.2094 15.2994 9.70665 15.7257 10.3446C16.152 10.9826 16.3795 11.7327 16.3795 12.5C16.3781 13.5285 15.9689 14.5144 15.2417 15.2417C14.5144 15.9689 13.5285 16.3781 12.5 16.3795ZM16.4014 9.57773C16.2126 9.57773 16.028 9.52175 15.8711 9.41686C15.7141 9.31197 15.5917 9.16289 15.5195 8.98847C15.4472 8.81405 15.4283 8.62213 15.4652 8.43696C15.502 8.2518 15.5929 8.08171 15.7264 7.94822C15.8599 7.81472 16.03 7.72381 16.2151 7.68698C16.4003 7.65015 16.5922 7.66905 16.7667 7.7413C16.9411 7.81355 17.0902 7.93589 17.195 8.09287C17.2999 8.24984 17.3559 8.43439 17.3559 8.62318C17.3559 8.87635 17.2553 9.11914 17.0763 9.29815C16.8973 9.47716 16.6545 9.57773 16.4014 9.57773ZM12.5 10.1286C12.031 10.1286 11.5725 10.2677 11.1825 10.5283C10.7926 10.7889 10.4886 11.1592 10.3092 11.5925C10.1297 12.0258 10.0827 12.5026 10.1742 12.9626C10.2657 13.4226 10.4916 13.8452 10.8232 14.1768C11.1548 14.5085 11.5774 14.7343 12.0374 14.8258C12.4974 14.9173 12.9742 14.8703 13.4075 14.6909C13.8408 14.5114 14.2112 14.2074 14.4717 13.8175C14.7323 13.4275 14.8714 12.969 14.8714 12.5C14.8714 11.8711 14.6215 11.2679 14.1768 10.8232C13.7321 10.3785 13.1289 10.1286 12.5 10.1286ZM24.0909 4.79137C23.9847 3.79789 23.5413 2.87078 22.8347 2.1644C22.1281 1.45802 21.2008 1.015 20.2073 0.909094C15.0854 0.362659 9.92002 0.362659 4.79818 0.909094C3.80369 1.01383 2.87515 1.45633 2.16743 2.16282C1.45971 2.8693 1.01557 3.79706 0.909094 4.79137C0.362659 9.9132 0.362659 15.0786 0.909094 20.2005C1.01359 21.1954 1.45616 22.1244 2.16295 22.8324C2.86973 23.5405 3.79797 23.9847 4.79273 24.0909C9.91442 24.64 15.0801 24.64 20.2018 24.0909C21.1967 23.9861 22.1256 23.5432 22.8334 22.8361C23.5411 22.1291 23.985 21.2007 24.0909 20.2059C24.6377 15.0823 24.6377 9.915 24.0909 4.79137ZM20 15.53C19.9993 16.7151 19.5283 17.8514 18.6905 18.6895C17.8526 19.5276 16.7164 19.9989 15.5314 20H9.46864C8.28369 19.9986 7.14771 19.5271 6.30995 18.6891C5.47219 17.8511 5.00109 16.715 5 15.53V9.46728C5.00145 8.28269 5.47276 7.14705 6.31051 6.30955C7.14827 5.47205 8.28405 5.00109 9.46864 5H15.5314C16.716 5.00109 17.8517 5.47205 18.6895 6.30955C19.5273 7.14705 19.9986 8.28269 20 9.46728V15.53ZM15.5314 6.50955H9.46864C9.08011 6.50937 8.69535 6.58574 8.33635 6.7343C7.97734 6.88286 7.65112 7.1007 7.37633 7.37536C7.10153 7.65003 6.88355 7.97615 6.73482 8.33509C6.5861 8.69402 6.50955 9.07875 6.50955 9.46728V15.53C6.50937 15.9186 6.58579 16.3035 6.73443 16.6626C6.88308 17.0217 7.10103 17.348 7.37585 17.6228C7.65066 17.8976 7.97694 18.1156 8.33603 18.2642C8.69513 18.4129 9.08 18.4893 9.46864 18.4891H15.5314C15.92 18.4893 16.3049 18.4129 16.664 18.2642C17.0231 18.1156 17.3493 17.8976 17.6242 17.6228C17.899 17.348 18.1169 17.0217 18.2656 16.6626C18.4142 16.3035 18.4906 15.9186 18.4905 15.53V9.46728C18.4905 9.07875 18.4139 8.69402 18.2652 8.33509C18.1165 7.97615 17.8985 7.65003 17.6237 7.37536C17.3489 7.1007 17.0227 6.88286 16.6637 6.7343C16.3047 6.58574 15.9199 6.50937 15.5314 6.50955ZM12.5 16.3795C11.7327 16.3795 10.9826 16.152 10.3446 15.7257C9.70666 15.2994 9.2094 14.6935 8.91577 13.9846C8.62214 13.2757 8.54531 12.4957 8.695 11.7431C8.8447 10.9906 9.21419 10.2993 9.75675 9.75675C10.2993 9.21419 10.9906 8.8447 11.7431 8.695C12.4957 8.54531 13.2757 8.62214 13.9846 8.91577C14.6935 9.2094 15.2994 9.70665 15.7257 10.3446C16.152 10.9826 16.3795 11.7327 16.3795 12.5C16.3781 13.5285 15.9689 14.5144 15.2417 15.2417C14.5144 15.9689 13.5285 16.3781 12.5 16.3795ZM16.4014 9.57773C16.2126 9.57773 16.028 9.52175 15.8711 9.41686C15.7141 9.31197 15.5917 9.16289 15.5195 8.98847C15.4472 8.81405 15.4283 8.62213 15.4652 8.43696C15.502 8.2518 15.5929 8.08171 15.7264 7.94822C15.8599 7.81472 16.03 7.72381 16.2151 7.68698C16.4003 7.65015 16.5922 7.66905 16.7667 7.7413C16.9411 7.81355 17.0902 7.93589 17.195 8.09287C17.2999 8.24984 17.3559 8.43439 17.3559 8.62318C17.3559 8.87635 17.2553 9.11914 17.0763 9.29815C16.8973 9.47716 16.6545 9.57773 16.4014 9.57773ZM12.5 10.1286C12.031 10.1286 11.5725 10.2677 11.1825 10.5283C10.7926 10.7889 10.4886 11.1592 10.3092 11.5925C10.1297 12.0258 10.0827 12.5026 10.1742 12.9626C10.2657 13.4226 10.4916 13.8452 10.8232 14.1768C11.1548 14.5085 11.5774 14.7343 12.0374 14.8258C12.4974 14.9173 12.9742 14.8703 13.4075 14.6909C13.8408 14.5114 14.2112 14.2074 14.4717 13.8175C14.7323 13.4275 14.8714 12.969 14.8714 12.5C14.8714 11.8711 14.6215 11.2679 14.1768 10.8232C13.7321 10.3785 13.1289 10.1286 12.5 10.1286Z" fill="#1A4220"/>
</svg>
