<svg width="49" height="48" viewBox="0 0 49 48" fill="none" xmlns="http://www.w3.org/2000/svg">
<path d="M24.5 30.5C20.92 30.5 18 27.58 18 24C18 20.42 20.92 17.5 24.5 17.5C28.08 17.5 31 20.42 31 24C31 27.58 28.08 30.5 24.5 30.5ZM24.5 20.5C22.58 20.5 21 22.08 21 24C21 25.92 22.58 27.5 24.5 27.5C26.42 27.5 28 25.92 28 24C28 22.08 26.42 20.5 24.5 20.5Z" fill="#292D32"/>
<path d="M37.5 30.5C36.68 30.5 36 29.82 36 29V19C36 18.18 36.68 17.5 37.5 17.5C38.32 17.5 39 18.18 39 19V29C39 29.82 38.32 30.5 37.5 30.5Z" fill="#292D32"/>
<path d="M10.5 45.5C7.18 45.5 4.06 43.74 2.38 40.88C1.48 39.44 1 37.74 1 36C1 30.76 5.26 26.5 10.5 26.5C15.74 26.5 20 30.76 20 36C20 37.74 19.52 39.44 18.62 40.9C16.94 43.74 13.82 45.5 10.5 45.5ZM10.5 29.5C6.92 29.5 4 32.42 4 36C4 37.18 4.32 38.34 4.94 39.34C6.1 41.3 8.24 42.5 10.5 42.5C12.76 42.5 14.9 41.3 16.06 39.36C16.68 38.34 17 37.2 17 36C17 32.42 14.08 29.5 10.5 29.5Z" fill="#292D32"/>
<path d="M9.35974 39.4801C8.97974 39.4801 8.59975 39.3402 8.29975 39.0402L6.31977 37.0602C5.73977 36.4802 5.73977 35.5201 6.31977 34.9401C6.89977 34.3601 7.85976 34.3601 8.43976 34.9401L9.39978 35.9002L12.5997 32.9401C13.1997 32.3801 14.1597 32.4202 14.7197 33.0202C15.2797 33.6202 15.2398 34.5801 14.6398 35.1401L10.3798 39.0801C10.0798 39.3401 9.71974 39.4801 9.35974 39.4801Z" fill="#292D32"/>
<path d="M34.5 41.5H17.5C16.68 41.5 16 40.82 16 40C16 39.18 16.68 38.5 17.5 38.5H34.5C40.22 38.5 43 35.72 43 30V18C43 12.28 40.22 9.5 34.5 9.5H14.5C8.78 9.5 6 12.28 6 18V30.6C6 31.42 5.32 32.1 4.5 32.1C3.68 32.1 3 31.42 3 30.6V18C3 10.7 7.2 6.5 14.5 6.5H34.5C41.8 6.5 46 10.7 46 18V30C46 37.3 41.8 41.5 34.5 41.5Z" fill="#292D32"/>
</svg>
