<svg width="49" height="48" viewBox="0 0 49 48" fill="none" xmlns="http://www.w3.org/2000/svg">
<path d="M32.12 40.36C31.6 40.36 31.06 40.34 30.48 40.28C29.44 40.2 28.26 40 27.04 39.7L23.68 38.9C14.46 36.72 11.44 31.84 13.6 22.64L15.56 14.26C16 12.36 16.52 10.82 17.16 9.54C20.6 2.44 27.18 3.08 31.86 4.18L35.2 4.96C39.88 6.06 42.84 7.8 44.5 10.46C46.14 13.12 46.4 16.54 45.3 21.22L43.34 29.58C41.62 36.9 38.04 40.36 32.12 40.36ZM26.74 6.5C23.4 6.5 21.28 7.88 19.86 10.84C19.34 11.92 18.88 13.26 18.48 14.94L16.52 23.32C14.74 30.88 16.8 34.18 24.36 35.98L27.72 36.78C28.8 37.04 29.82 37.2 30.74 37.28C36.18 37.82 38.88 35.44 40.4 28.9L42.36 20.54C43.26 16.68 43.14 13.98 41.94 12.04C40.74 10.1 38.38 8.78 34.5 7.88L31.16 7.1C29.5 6.7 28.02 6.5 26.74 6.5Z" fill="#292D32"/>
<path d="M17.16 44.5C12.02 44.5 8.73998 41.42 6.63998 34.92L4.07998 27.02C1.23998 18.22 3.77998 13.26 12.54 10.42L15.7 9.40001C16.74 9.08001 17.52 8.86001 18.22 8.74001C18.8 8.62001 19.36 8.84001 19.7 9.30001C20.04 9.76001 20.1 10.36 19.86 10.88C19.34 11.94 18.88 13.28 18.5 14.96L16.54 23.34C14.76 30.9 16.82 34.2 24.38 36L27.74 36.8C28.82 37.06 29.84 37.22 30.76 37.3C31.4 37.36 31.92 37.8 32.1 38.42C32.26 39.04 32.02 39.68 31.5 40.04C30.18 40.94 28.52 41.7 26.42 42.38L23.26 43.42C20.96 44.14 18.96 44.5 17.16 44.5ZM16.06 12.44L13.48 13.28C6.33998 15.58 4.63998 18.94 6.93998 26.1L9.49998 34C11.82 41.14 15.18 42.86 22.32 40.56L25.48 39.52C25.6 39.48 25.7 39.44 25.82 39.4L23.7 38.9C14.48 36.72 11.46 31.84 13.62 22.64L15.58 14.26C15.72 13.62 15.88 13 16.06 12.44Z" fill="#292D32"/>
<path d="M35.48 21.02C35.36 21.02 35.24 21 35.1 20.98L25.4 18.52C24.6 18.32 24.12 17.5 24.32 16.7C24.52 15.9 25.34 15.42 26.14 15.62L35.84 18.08C36.64 18.28 37.12 19.1 36.92 19.9C36.76 20.56 36.14 21.02 35.48 21.02Z" fill="#292D32"/>
<path d="M29.62 27.78C29.5 27.78 29.38 27.76 29.24 27.74L23.42 26.26C22.62 26.06 22.14 25.24 22.34 24.44C22.54 23.64 23.36 23.16 24.16 23.36L29.98 24.84C30.78 25.04 31.26 25.86 31.06 26.66C30.9 27.34 30.3 27.78 29.62 27.78Z" fill="#292D32"/>
</svg>
