<svg width="49" height="48" viewBox="0 0 49 48" fill="none" xmlns="http://www.w3.org/2000/svg">
<path d="M24.4998 45.52C22.3198 45.52 20.1598 44.88 18.4598 43.62L9.8598 37.2C7.5798 35.5 5.7998 31.96 5.7998 29.12V14.26C5.7998 11.18 8.05984 7.90001 10.9598 6.82001L20.9398 3.08002C22.9198 2.34002 26.0398 2.34002 28.0198 3.08002L38.0198 6.82001C40.9198 7.90001 43.1798 11.18 43.1798 14.26V29.12C43.1798 31.96 41.3998 35.5 39.1198 37.2L30.5198 43.62C28.8398 44.88 26.6798 45.52 24.4998 45.52ZM21.9998 5.88001L12.0198 9.62C10.2998 10.26 8.7998 12.42 8.7998 14.26V29.12C8.7998 31.02 10.1398 33.68 11.6398 34.8L20.2398 41.22C22.5398 42.94 26.4398 42.94 28.7398 41.22L37.3398 34.8C38.8598 33.66 40.1798 31 40.1798 29.12V14.26C40.1798 12.44 38.6798 10.28 36.9598 9.62L26.9798 5.88001C25.6598 5.38001 23.3398 5.38001 21.9998 5.88001Z" fill="#292D32"/>
<path d="M24.4998 23.3401C24.4598 23.3401 24.4198 23.3401 24.3598 23.3401C21.4598 23.2601 19.3398 21.0401 19.3398 18.3401C19.3398 15.5801 21.5998 13.3201 24.3598 13.3201C27.1198 13.3201 29.3798 15.5801 29.3798 18.3401C29.3598 21.0601 27.2398 23.26 24.5398 23.36C24.5198 23.34 24.5198 23.3401 24.4998 23.3401ZM24.3598 16.3201C23.2398 16.3201 22.3398 17.2201 22.3398 18.3401C22.3398 19.4401 23.1998 20.32 24.2798 20.36C24.2798 20.36 24.3798 20.36 24.4998 20.36C25.5598 20.3 26.3798 19.4201 26.3798 18.3401C26.3998 17.2201 25.4798 16.3201 24.3598 16.3201Z" fill="#292D32"/>
<path d="M24.4996 34.7001C22.7796 34.7001 21.0396 34.2401 19.6996 33.3401C18.3596 32.4601 17.5996 31.1601 17.5996 29.7801C17.5996 28.4001 18.3596 27.1001 19.6996 26.2001C22.3996 24.4001 26.6196 24.4201 29.2996 26.2001C30.6396 27.0801 31.3997 28.3801 31.3997 29.7601C31.3997 31.1401 30.6396 32.4401 29.2996 33.3401C27.9596 34.2401 26.2196 34.7001 24.4996 34.7001ZM21.3596 28.68C20.8596 29 20.5796 29.4001 20.5996 29.7601C20.5996 30.1201 20.8796 30.5201 21.3596 30.8401C23.0396 31.9601 25.9596 31.9601 27.6396 30.8401C28.1396 30.5201 28.4196 30.1201 28.4196 29.7601C28.4196 29.4001 28.1396 29 27.6596 28.68C25.9796 27.58 23.0396 27.58 21.3596 28.68Z" fill="#292D32"/>
</svg>
