<svg width="24" height="25" viewBox="0 0 24 25" fill="none" xmlns="http://www.w3.org/2000/svg">
<path d="M19.9493 0.5H5.05062C2.5414 0.5 0.5 2.5414 0.5 5.05062V19.9493C0.5 22.4585 2.5414 24.4999 5.05062 24.4999H19.9493C22.4586 24.4999 24.5 22.4585 24.5 19.9493V5.05062C24.5 2.5414 22.4586 0.5 19.9493 0.5ZM20.8231 17.6803C20.7214 17.752 20.0084 18.2391 19.0848 18.4668C19.2475 19.0762 19.3057 19.7922 18.9065 20.2527C18.816 20.3572 18.6972 20.4333 18.5644 20.472C18.4317 20.5106 18.2906 20.5102 18.1581 20.4706C17.7439 20.3477 16.4942 20.0573 15.7027 20.1891C15.3237 20.2523 14.9492 20.4661 14.5528 20.6925C13.9783 21.0204 13.3273 21.3921 12.5027 21.3953H12.4972C11.6727 21.3922 11.0216 21.0204 10.4472 20.6925C10.0507 20.4661 9.67618 20.2523 9.2972 20.1891C8.50127 20.0566 7.255 20.3474 6.84185 20.4706C6.70934 20.5102 6.56825 20.5106 6.4355 20.472C6.30274 20.4333 6.18396 20.3572 6.09339 20.2527C5.69421 19.7922 5.75247 19.0761 5.91513 18.4668C4.99155 18.2391 4.27845 17.752 4.17677 17.6803C4.07968 17.6117 4.0011 17.5202 3.94807 17.4138C3.89504 17.3074 3.86923 17.1896 3.87293 17.0708C3.87664 16.952 3.90975 16.8359 3.96931 16.7331C4.02886 16.6302 4.113 16.5437 4.21418 16.4814C5.4484 15.721 6.47435 14.6171 7.054 13.4482L5.56347 12.6869C5.13701 12.469 4.82084 12.0981 4.67327 11.6425C4.52571 11.1868 4.56443 10.7011 4.7823 10.2744C5.23207 9.39395 6.31432 9.04356 7.19472 9.49323L7.58974 9.69498V8.51444C7.58974 5.80694 9.79243 3.60429 12.4999 3.60429C15.2073 3.60429 17.41 5.80694 17.41 8.51444V9.69484L17.8048 9.49323C18.6852 9.04365 19.7674 9.394 20.2172 10.2744C20.4351 10.701 20.4738 11.1868 20.3262 11.6425C20.1786 12.0982 19.8625 12.4691 19.436 12.6869L17.9457 13.4482C18.5254 14.617 19.5513 15.721 20.7856 16.4814C20.8868 16.5438 20.971 16.6303 21.0305 16.7331C21.0901 16.8359 21.1232 16.952 21.1269 17.0708C21.1306 17.1896 21.1048 17.3074 21.0518 17.4138C20.9988 17.5202 20.9202 17.6117 20.8231 17.6803Z" fill="#1A4220"/>
<path d="M18.1221 17.1458C18.4287 17.1543 18.7408 17.0841 19.0203 16.9879C17.7823 15.985 16.8332 14.7067 16.3461 13.357C16.2867 13.1925 16.2894 13.0119 16.3537 12.8492C16.418 12.6865 16.5394 12.5528 16.6952 12.4732L18.7825 11.407C18.8241 11.3858 18.8612 11.3566 18.8915 11.321C18.9219 11.2854 18.9448 11.2442 18.9592 11.1997C18.9737 11.1553 18.9792 11.1084 18.9755 11.0618C18.9718 11.0152 18.9589 10.9698 18.9375 10.9282C18.8482 10.7534 18.6335 10.6838 18.4586 10.7731L17.0185 11.5087C16.9089 11.5647 16.7868 11.5916 16.6639 11.5868C16.541 11.5821 16.4214 11.5459 16.3165 11.4817C16.2116 11.4174 16.1249 11.3274 16.0648 11.2201C16.0046 11.1128 15.973 10.9918 15.973 10.8688V8.51457C15.973 6.59949 14.415 5.0415 12.5 5.0415C10.585 5.0415 9.02692 6.59949 9.02692 8.51457V10.8689C9.02691 10.9919 8.99532 11.1128 8.93519 11.2201C8.87505 11.3274 8.78838 11.4175 8.68348 11.4817C8.57857 11.5459 8.45894 11.5821 8.33603 11.5869C8.21312 11.5916 8.09106 11.5647 7.98151 11.5088L6.54109 10.7731C6.36634 10.6838 6.15147 10.7535 6.06217 10.9282C6.04083 10.9698 6.02792 11.0152 6.02421 11.0618C6.02049 11.1084 6.02603 11.1553 6.04051 11.1997C6.05484 11.2442 6.07782 11.2854 6.10814 11.321C6.13846 11.3566 6.17552 11.3858 6.21719 11.407L8.30476 12.4733C8.46057 12.5529 8.58198 12.6866 8.64624 12.8493C8.7105 13.012 8.71319 13.1926 8.6538 13.3572C8.16667 14.7068 7.21736 15.9854 5.97925 16.9883C6.25858 17.0844 6.571 17.1546 6.8778 17.1459C7.12572 17.1411 7.35958 17.2611 7.49636 17.4681C7.56363 17.5699 7.60388 17.6871 7.61331 17.8088C7.62274 17.9304 7.60104 18.0525 7.55026 18.1634C7.4462 18.3921 7.35531 18.6559 7.29573 18.8846C7.735 18.7981 8.28723 18.7184 8.82962 18.7184C9.06976 18.7184 9.30789 18.734 9.53345 18.7716C10.1657 18.877 10.6937 19.1784 11.1596 19.4445C11.6399 19.7187 12.0549 19.9555 12.4999 19.9582C12.9451 19.9555 13.36 19.7186 13.8402 19.4445C14.3061 19.1784 14.8342 18.877 15.4664 18.7716C16.2014 18.6492 17.0699 18.7598 17.7037 18.8844C17.6438 18.6537 17.5526 18.3882 17.4497 18.1634C17.3989 18.0524 17.3772 17.9304 17.3866 17.8087C17.396 17.6871 17.4363 17.5699 17.5036 17.4681C17.6403 17.261 17.8744 17.1411 18.1221 17.1458Z" fill="#1A4220"/>
</svg>
