<svg width="49" height="48" viewBox="0 0 49 48" fill="none" xmlns="http://www.w3.org/2000/svg">
<path d="M19.4604 41.38C18.4604 41.38 17.7604 41.04 17.3404 40.72C16.5404 40.14 15.3004 38.64 16.0804 35.28L17.2203 30.36C17.3203 29.94 17.1004 29.18 16.8004 28.86L12.8204 24.88C10.7204 22.78 10.9004 20.96 11.1804 20.06C11.4604 19.16 12.3804 17.58 15.3004 17.08L20.4004 16.24C20.7804 16.18 21.4004 15.72 21.5604 15.38L24.3804 9.73999C25.7404 7.01999 27.5404 6.62 28.5004 6.62C29.4604 6.62 31.2604 7.01999 32.6204 9.73999L35.4404 15.38C35.6204 15.72 36.2203 16.18 36.6003 16.24L41.7004 17.08C44.6204 17.56 45.5404 19.16 45.8204 20.06C46.1004 20.96 46.2804 22.78 44.1804 24.88L40.2004 28.86C39.9004 29.16 39.6804 29.94 39.7804 30.36L40.9204 35.28C41.7004 38.66 40.4603 40.14 39.6603 40.72C38.8603 41.3 37.0804 42.04 34.0804 40.26L29.3004 37.42C28.9004 37.18 28.0603 37.18 27.6603 37.42L22.8804 40.26C21.5004 41.1 20.3404 41.38 19.4604 41.38ZM28.5004 9.62C28.1804 9.62 27.6004 9.99999 27.0604 11.08L24.2404 16.72C23.6404 17.94 22.2204 18.98 20.8804 19.2L15.7804 20.04C14.6404 20.24 14.1204 20.66 14.0204 20.98C13.9204 21.3 14.1004 21.94 14.9204 22.76L18.9004 26.74C19.9204 27.76 20.4604 29.62 20.1404 31.02L19.0004 35.94C18.6604 37.36 18.8803 38.12 19.1003 38.3C19.3203 38.46 20.1204 38.44 21.3604 37.68L26.1603 34.84C27.5003 34.04 29.5204 34.04 30.8404 34.84L35.6204 37.68C36.8804 38.42 37.6804 38.46 37.9004 38.3C38.1204 38.14 38.3404 37.38 38.0004 35.94L36.8604 31.02C36.5404 29.6 37.0603 27.76 38.1003 26.74L42.0804 22.76C42.9004 21.94 43.0803 21.28 42.9804 20.98C42.8804 20.68 42.3603 20.24 41.2203 20.04L36.1204 19.2C34.7804 18.98 33.3604 17.94 32.7604 16.72L29.9404 11.08C29.4004 9.99999 28.8204 9.62 28.5004 9.62Z" fill="#292D32"/>
<path d="M16.5 11.5H4.5C3.68 11.5 3 10.82 3 10C3 9.18 3.68 8.5 4.5 8.5H16.5C17.32 8.5 18 9.18 18 10C18 10.82 17.32 11.5 16.5 11.5Z" fill="#292D32"/>
<path d="M10.5 39.5H4.5C3.68 39.5 3 38.82 3 38C3 37.18 3.68 36.5 4.5 36.5H10.5C11.32 36.5 12 37.18 12 38C12 38.82 11.32 39.5 10.5 39.5Z" fill="#292D32"/>
<path d="M6.5 25.5H4.5C3.68 25.5 3 24.82 3 24C3 23.18 3.68 22.5 4.5 22.5H6.5C7.32 22.5 8 23.18 8 24C8 24.82 7.32 25.5 6.5 25.5Z" fill="#292D32"/>
</svg>
