<svg width="24" height="25" viewBox="0 0 24 25" fill="none" xmlns="http://www.w3.org/2000/svg">
<path d="M20.2073 24.0909C15.0854 24.6373 9.92002 24.6373 4.79818 24.0909C3.80357 23.9859 2.87501 23.5431 2.16731 22.8364C1.45961 22.1297 1.01552 21.2017 0.909094 20.2073C0.362659 15.0854 0.362659 9.92002 0.909094 4.79818C1.01413 3.80357 1.45691 2.87501 2.16362 2.16731C2.87033 1.45961 3.79827 1.01552 4.79273 0.909094C9.91456 0.362659 15.08 0.362659 20.2018 0.909094C21.1964 1.01413 22.125 1.45691 22.8327 2.16362C23.5404 2.87033 23.9845 3.79827 24.0909 4.79273C24.6373 9.91456 24.6373 15.08 24.0909 20.2018C23.9859 21.1964 23.5431 22.125 22.8364 22.8327C22.1297 23.5404 21.2017 23.9845 20.2073 24.0909Z" fill="#1A4220"/>
<path d="M24.4837 14.0068C24.4409 16.0741 24.3096 18.1409 24.0896 20.2073C23.9851 21.2013 23.5426 22.1294 22.8359 22.8363C22.1292 23.5432 21.2013 23.9861 20.2073 24.0909C17.8955 24.3382 15.5823 24.4745 13.2677 24.5L6.88592 18.1182C6.24092 12.83 11.8591 10.4273 11.8591 10.4273L13.8636 12.4264L15.4768 5L24.4837 14.0068Z" fill="#1A4220"/>
<path d="M10.6905 20C9.42106 20 8.20362 19.4957 7.30601 18.5981C6.40839 17.7005 5.90411 16.4831 5.90411 15.2136C5.90411 13.9442 6.40839 12.7268 7.30601 11.8292C8.20362 10.9315 9.42106 10.4273 10.6905 10.4273H11.8591V12.7632H10.6905C10.205 12.7632 9.73045 12.9071 9.32681 13.1768C8.92316 13.4466 8.60855 13.8299 8.42277 14.2784C8.23699 14.7269 8.18839 15.2205 8.2831 15.6966C8.3778 16.1727 8.61158 16.6101 8.95485 16.9534C9.29813 17.2966 9.73548 17.5304 10.2116 17.6251C10.6878 17.7198 11.1813 17.6712 11.6298 17.4854C12.0783 17.2997 12.4616 16.985 12.7314 16.5814C13.0011 16.1778 13.145 15.7032 13.145 15.2177V5H15.4809V6.16727C15.4809 6.81826 15.7395 7.44258 16.1999 7.9029C16.6602 8.36322 17.2845 8.62182 17.9355 8.62182H19.1041V10.9536H17.9273C17.0622 10.9549 16.2133 10.7191 15.4727 10.2718V15.2136C15.4717 16.482 14.9676 17.6982 14.0711 18.5955C13.1746 19.4927 11.9589 19.9978 10.6905 20Z" fill="white"/>
</svg>
