<svg width="24" height="25" viewBox="0 0 24 25" fill="none" xmlns="http://www.w3.org/2000/svg">
<g clip-path="url(#clip0_920_6506)">
<path d="M24.5 19.6269C24.5 22.3071 24.5 24.5 19.6269 24.5H5.3731C0.5 24.5 0.5 22.3071 0.5 19.6269V5.3731C0.5 2.69292 0.5 0.5 5.3731 0.5H19.6269C24.5 0.5 24.5 2.69292 24.5 5.3731V19.6269Z" fill="#1A4220"/>
<path d="M14.2961 11.3035L20.0691 4.10815H18.397L13.4603 10.2615L8.52304 4.10815H3.01086L10.7039 13.6967L4.93034 20.8925H6.60252L11.5397 14.7386L16.4775 20.8925H21.9896L14.2961 11.3035ZM5.72913 5.41245H7.89695L19.2709 19.5881H17.103L5.72913 5.41245Z" fill="#F0F0F1"/>
</g>
<defs>
<clipPath id="clip0_920_6506">
<rect width="24" height="24" fill="white" transform="translate(0 0.5)"/>
</clipPath>
</defs>
</svg>
